<mxfile host="app.diagrams.net" modified="2021-12-26T12:01:45.466Z" agent="5.0 (Windows NT 10.0; Win64; x64) AppleWebKit/537.36 (KHTML, like Gecko) Chrome/96.0.4664.110 Safari/537.36 Edg/96.0.1054.62" etag="HutvQ-XHSJ3U-oJJDFhB" version="16.1.0" type="github">
  <diagram id="yyjMljFv-cnQipBiJX1D" name="Page-1">
    <mxGraphModel dx="834" dy="533" grid="1" gridSize="10" guides="1" tooltips="1" connect="1" arrows="1" fold="1" page="1" pageScale="1" pageWidth="850" pageHeight="1100" math="0" shadow="0">
      <root>
        <mxCell id="0" />
        <mxCell id="1" parent="0" />
        <mxCell id="F0aWWNhPNEH1Pjoyhepn-1" value="防火墙字符设备" style="rounded=0;whiteSpace=wrap;html=1;" vertex="1" parent="1">
          <mxGeometry x="520" y="150" width="105" height="40" as="geometry" />
        </mxCell>
        <mxCell id="F0aWWNhPNEH1Pjoyhepn-9" style="edgeStyle=orthogonalEdgeStyle;rounded=0;orthogonalLoop=1;jettySize=auto;html=1;" edge="1" parent="1" source="F0aWWNhPNEH1Pjoyhepn-2" target="F0aWWNhPNEH1Pjoyhepn-8">
          <mxGeometry relative="1" as="geometry" />
        </mxCell>
        <mxCell id="F0aWWNhPNEH1Pjoyhepn-2" value="防火墙" style="rounded=0;whiteSpace=wrap;html=1;" vertex="1" parent="1">
          <mxGeometry x="180" y="150" width="70" height="40" as="geometry" />
        </mxCell>
        <mxCell id="F0aWWNhPNEH1Pjoyhepn-4" value="" style="endArrow=classic;html=1;rounded=0;exitX=0;exitY=0.25;exitDx=0;exitDy=0;entryX=1;entryY=0.25;entryDx=0;entryDy=0;" edge="1" parent="1" source="F0aWWNhPNEH1Pjoyhepn-1" target="F0aWWNhPNEH1Pjoyhepn-2">
          <mxGeometry width="50" height="50" relative="1" as="geometry">
            <mxPoint x="360" y="350" as="sourcePoint" />
            <mxPoint x="260" y="350" as="targetPoint" />
          </mxGeometry>
        </mxCell>
        <mxCell id="F0aWWNhPNEH1Pjoyhepn-5" value="" style="endArrow=classic;html=1;rounded=0;exitX=1;exitY=0.75;exitDx=0;exitDy=0;entryX=0;entryY=0.75;entryDx=0;entryDy=0;" edge="1" parent="1" source="F0aWWNhPNEH1Pjoyhepn-2" target="F0aWWNhPNEH1Pjoyhepn-1">
          <mxGeometry width="50" height="50" relative="1" as="geometry">
            <mxPoint x="360" y="350" as="sourcePoint" />
            <mxPoint x="410" y="300" as="targetPoint" />
          </mxGeometry>
        </mxCell>
        <mxCell id="F0aWWNhPNEH1Pjoyhepn-6" value="读取防火墙规则、状态检测表、nat转换表" style="text;html=1;align=center;verticalAlign=middle;resizable=0;points=[];autosize=1;strokeColor=none;fillColor=none;" vertex="1" parent="1">
          <mxGeometry x="260" y="140" width="240" height="20" as="geometry" />
        </mxCell>
        <mxCell id="F0aWWNhPNEH1Pjoyhepn-7" value="写入日志、修改连接状态表" style="text;html=1;align=center;verticalAlign=middle;resizable=0;points=[];autosize=1;strokeColor=none;fillColor=none;" vertex="1" parent="1">
          <mxGeometry x="300" y="180" width="160" height="20" as="geometry" />
        </mxCell>
        <mxCell id="F0aWWNhPNEH1Pjoyhepn-11" value="" style="edgeStyle=orthogonalEdgeStyle;rounded=0;orthogonalLoop=1;jettySize=auto;html=1;" edge="1" parent="1" source="F0aWWNhPNEH1Pjoyhepn-8" target="F0aWWNhPNEH1Pjoyhepn-12">
          <mxGeometry relative="1" as="geometry">
            <mxPoint x="215" y="340" as="targetPoint" />
          </mxGeometry>
        </mxCell>
        <mxCell id="F0aWWNhPNEH1Pjoyhepn-8" value="Netfilter hook" style="rounded=0;whiteSpace=wrap;html=1;" vertex="1" parent="1">
          <mxGeometry x="175" y="230" width="80" height="40" as="geometry" />
        </mxCell>
        <mxCell id="F0aWWNhPNEH1Pjoyhepn-16" style="edgeStyle=orthogonalEdgeStyle;rounded=0;orthogonalLoop=1;jettySize=auto;html=1;" edge="1" parent="1" source="F0aWWNhPNEH1Pjoyhepn-12" target="F0aWWNhPNEH1Pjoyhepn-13">
          <mxGeometry relative="1" as="geometry" />
        </mxCell>
        <mxCell id="F0aWWNhPNEH1Pjoyhepn-24" value="" style="edgeStyle=orthogonalEdgeStyle;rounded=0;orthogonalLoop=1;jettySize=auto;html=1;" edge="1" parent="1" source="F0aWWNhPNEH1Pjoyhepn-12" target="F0aWWNhPNEH1Pjoyhepn-23">
          <mxGeometry relative="1" as="geometry" />
        </mxCell>
        <mxCell id="F0aWWNhPNEH1Pjoyhepn-12" value="是否允许通过？" style="rhombus;whiteSpace=wrap;html=1;" vertex="1" parent="1">
          <mxGeometry x="157.5" y="300" width="115" height="40" as="geometry" />
        </mxCell>
        <mxCell id="F0aWWNhPNEH1Pjoyhepn-19" value="" style="edgeStyle=orthogonalEdgeStyle;rounded=0;orthogonalLoop=1;jettySize=auto;html=1;" edge="1" parent="1" source="F0aWWNhPNEH1Pjoyhepn-13" target="F0aWWNhPNEH1Pjoyhepn-18">
          <mxGeometry relative="1" as="geometry" />
        </mxCell>
        <mxCell id="F0aWWNhPNEH1Pjoyhepn-22" style="edgeStyle=orthogonalEdgeStyle;rounded=0;orthogonalLoop=1;jettySize=auto;html=1;" edge="1" parent="1" source="F0aWWNhPNEH1Pjoyhepn-13" target="F0aWWNhPNEH1Pjoyhepn-20">
          <mxGeometry relative="1" as="geometry">
            <Array as="points">
              <mxPoint x="332" y="390" />
            </Array>
          </mxGeometry>
        </mxCell>
        <mxCell id="F0aWWNhPNEH1Pjoyhepn-13" value="是否需要进行nat转换" style="rhombus;whiteSpace=wrap;html=1;" vertex="1" parent="1">
          <mxGeometry x="128.75" y="370" width="172.5" height="40" as="geometry" />
        </mxCell>
        <mxCell id="F0aWWNhPNEH1Pjoyhepn-17" value="Y" style="text;html=1;align=center;verticalAlign=middle;resizable=0;points=[];autosize=1;strokeColor=none;fillColor=none;" vertex="1" parent="1">
          <mxGeometry x="220" y="340" width="20" height="20" as="geometry" />
        </mxCell>
        <mxCell id="F0aWWNhPNEH1Pjoyhepn-18" value="ACCEPT" style="whiteSpace=wrap;html=1;" vertex="1" parent="1">
          <mxGeometry x="182.5" y="440" width="65" height="30" as="geometry" />
        </mxCell>
        <mxCell id="F0aWWNhPNEH1Pjoyhepn-27" style="edgeStyle=orthogonalEdgeStyle;rounded=0;orthogonalLoop=1;jettySize=auto;html=1;" edge="1" parent="1" source="F0aWWNhPNEH1Pjoyhepn-20" target="F0aWWNhPNEH1Pjoyhepn-18">
          <mxGeometry relative="1" as="geometry" />
        </mxCell>
        <mxCell id="F0aWWNhPNEH1Pjoyhepn-20" value="NAT转换" style="whiteSpace=wrap;html=1;" vertex="1" parent="1">
          <mxGeometry x="300" y="440" width="65" height="30" as="geometry" />
        </mxCell>
        <mxCell id="F0aWWNhPNEH1Pjoyhepn-21" value="N" style="text;html=1;align=center;verticalAlign=middle;resizable=0;points=[];autosize=1;strokeColor=none;fillColor=none;" vertex="1" parent="1">
          <mxGeometry x="220" y="410" width="20" height="20" as="geometry" />
        </mxCell>
        <mxCell id="F0aWWNhPNEH1Pjoyhepn-23" value="DROP" style="whiteSpace=wrap;html=1;" vertex="1" parent="1">
          <mxGeometry x="307.5" y="305" width="50" height="30" as="geometry" />
        </mxCell>
        <mxCell id="F0aWWNhPNEH1Pjoyhepn-25" value="N" style="text;html=1;align=center;verticalAlign=middle;resizable=0;points=[];autosize=1;strokeColor=none;fillColor=none;" vertex="1" parent="1">
          <mxGeometry x="272.5" y="300" width="20" height="20" as="geometry" />
        </mxCell>
        <mxCell id="F0aWWNhPNEH1Pjoyhepn-26" value="Y" style="text;html=1;align=center;verticalAlign=middle;resizable=0;points=[];autosize=1;strokeColor=none;fillColor=none;" vertex="1" parent="1">
          <mxGeometry x="300" y="370" width="20" height="20" as="geometry" />
        </mxCell>
        <mxCell id="F0aWWNhPNEH1Pjoyhepn-28" value="配置工具程序&lt;br&gt;configTool" style="rounded=0;whiteSpace=wrap;html=1;" vertex="1" parent="1">
          <mxGeometry x="532.5" y="280" width="80" height="40" as="geometry" />
        </mxCell>
        <mxCell id="F0aWWNhPNEH1Pjoyhepn-29" value="" style="shape=flexArrow;endArrow=classic;startArrow=classic;html=1;rounded=0;entryX=0.5;entryY=1;entryDx=0;entryDy=0;exitX=0.5;exitY=0;exitDx=0;exitDy=0;" edge="1" parent="1" source="F0aWWNhPNEH1Pjoyhepn-28" target="F0aWWNhPNEH1Pjoyhepn-1">
          <mxGeometry width="100" height="100" relative="1" as="geometry">
            <mxPoint x="330" y="360" as="sourcePoint" />
            <mxPoint x="430" y="260" as="targetPoint" />
          </mxGeometry>
        </mxCell>
        <mxCell id="F0aWWNhPNEH1Pjoyhepn-30" value="读取日志、状态表，&lt;br&gt;读写防火墙规则" style="text;html=1;align=center;verticalAlign=middle;resizable=0;points=[];autosize=1;strokeColor=none;fillColor=none;" vertex="1" parent="1">
          <mxGeometry x="580" y="225" width="120" height="30" as="geometry" />
        </mxCell>
      </root>
    </mxGraphModel>
  </diagram>
</mxfile>
